Coordinates
version=1
nRows=18
nColumns=22
inDegrees=yes

Units are S.I. units (second, meters, Newtons, ...)
If the header above contains a line with 'inDegrees', this indicates whether rotational values are in degrees (yes) or radians (no).

endheader
time	pelvis_tilt	pelvis_list	pelvis_rotation	pelvis_tx	pelvis_ty	pelvis_tz	hip_flexion_r	hip_adduction_r	hip_rotation_r	knee_angle_r	ankle_angle_r	subtalar_angle_r	hip_flexion_l	hip_adduction_l	hip_rotation_l	knee_angle_l	ankle_angle_l	subtalar_angle_l	lumbar_extension	lumbar_bending	lumbar_rotation
      4.50000000	      3.68473255	      2.39331200	      5.90129101	     -0.81492130	      0.91662693	     -0.12364037	    -15.93869950	     -0.03285783	     -3.46068320	    -34.65947069	     -3.90328071	      3.93402533	     21.80224965	      4.33302920	    -10.17067182	    -28.89859124	     12.54630638	    -17.50121406	    -11.90778816	     -1.30724829	     -3.68030877
      4.51000000	      3.55920275	      2.12261049	      5.66629936	     -0.82722820	      0.91399729	     -0.12142033	    -16.22882498	      0.34007606	     -2.99211578	    -33.16835698	     -1.14589304	      4.61067585	     22.99765322	      3.91788986	    -10.26314201	    -29.18452901	     12.01391023	    -17.19311102	    -12.20214147	     -1.04777185	     -3.34330351
      4.52000000	      3.48633439	      1.84101706	      5.46524933	     -0.83967574	      0.91154182	     -0.11923194	    -16.44150228	      0.71079614	     -2.66686629	    -31.88520134	      1.81468557	      5.31762165	     24.06213267	      3.48790045	    -10.36643745	    -29.32037218	     11.48265322	    -16.64346969	    -12.58115276	     -0.76377621	     -3.05272931
      4.53000000	      3.47953683	      1.52056731	      5.30944925	     -0.85223963	      0.90934743	     -0.11710154	    -16.58655885	      1.10733419	     -2.54704993	    -30.79054378	      4.80875511	      5.99782821	     24.96908623	      3.03068358	    -10.42069259	    -29.28095976	     10.95348593	    -15.75589085	    -13.05122346	     -0.42304772	     -2.76981083
      4.54000000	      3.53800240	      1.17912246	      5.20362276	     -0.86482003	      0.90748961	     -0.11504376	    -16.68555389	      1.52001105	     -2.63478688	    -29.83278730	      7.70448086	      6.47650590	     25.69640289	      2.56867011	    -10.45184257	    -29.04499585	     10.47799708	    -14.60598944	    -13.59380469	     -0.04504499	     -2.53351955
      4.55000000	      3.64346272	      0.81182838	      5.14489304	     -0.87737535	      0.90598835	     -0.11307598	    -16.71878871	      1.94578697	     -2.95285907	    -28.99136852	     10.39069780	      6.67703108	     26.25726143	      2.10167502	    -10.46443024	    -28.60893469	     10.05907249	    -13.22715066	    -14.17405039	      0.37345587	     -2.31863385
      4.56000000	      3.78946208	      0.41497706	      5.12784353	     -0.88983938	      0.90487376	     -0.11120711	    -16.70012550	      2.39190623	     -3.46690909	    -28.21844609	     12.77113335	      6.54646847	     26.65034278	      1.63003826	    -10.45413023	    -27.97251896	      9.73210410	    -11.68730846	    -14.77062186	      0.83910344	     -2.13230326
      4.57000000	      3.95133702	      0.00171242	      5.14179937	     -0.90213672	      0.90411843	     -0.10941980	    -16.62344413	      2.84561430	     -4.12907151	    -27.48682510	     14.80556087	      6.07317855	     26.89958009	      1.16050229	    -10.45430356	    -27.15233570	      9.52078163	    -10.08993169	    -15.33960634	      1.32563432	     -1.96847129
      4.58000000	      4.10603081	     -0.40079741	      5.17909789	     -0.91417880	      0.90366778	     -0.10771932	    -16.47886482	      3.27671070	     -4.90551725	    -26.79776486	     16.50006532	      5.31166400	     27.02514881	      0.71656320	    -10.49790321	    -26.16985387	      9.48075750	     -8.53236163	    -15.84183469	      1.79564143	     -1.81729093
      4.59000000	      4.27301791	     -0.83959725	      5.19803712	     -0.92596362	      0.90353725	     -0.10598415	    -16.30934371	      3.75761061	     -5.59693649	    -26.10798632	     17.83561032	      4.28292118	     27.05070957	      0.20843923	    -10.65946253	    -25.12431823	      9.48459629	     -7.03755276	    -16.30437747	      2.29389874	     -1.67317019
      4.60000000	      4.41069918	     -1.25071350	      5.19204560	     -0.93737977	      0.90361721	     -0.10423613	    -16.08643478	      4.20953812	     -6.21711064	    -25.44031117	     18.92989569	      3.16945213	     27.01747754	     -0.29982550	    -10.98200744	    -24.05998189	      9.58552227	     -5.71982365	    -16.66991294	      2.73542496	     -1.53266989
      4.61000000	      4.52388260	     -1.63230249	      5.14947498	     -0.94841939	      0.90386629	     -0.10244137	    -15.82407928	      4.63957274	     -6.70736449	    -24.79429450	     19.85003409	      2.07269267	     26.95640339	     -0.82320949	    -11.50612803	    -23.08026165	      9.73386976	     -4.60471031	    -16.95129386	      3.11260962	     -1.39765709
      4.62000000	      4.61116257	     -1.96266107	      5.07716004	     -0.95908034	      0.90424355	     -0.10062041	    -15.53104197	      5.02797056	     -7.07475259	    -24.17166583	     20.65516268	      1.06480293	     26.90158067	     -1.34430413	    -12.24536813	    -22.28596673	      9.89079045	     -3.73557088	    -17.15801076	      3.40438781	     -1.29097492
      4.63000000	      4.67503515	     -2.22749729	      4.97907199	     -0.96937713	      0.90473274	     -0.09876970	    -15.21837858	      5.36347834	     -7.32863401	    -23.56796969	     21.38215544	      0.10384356	     26.87542047	     -1.85179544	    -13.16206307	    -21.76347397	     10.03175699	     -3.11188749	    -17.30637500	      3.59384934	     -1.23735590
      4.64000000	      4.72445833	     -2.41430721	      4.86335071	     -0.97933642	      0.90533780	     -0.09690955	    -14.89750735	      5.63647758	     -7.48186788	    -22.98677427	     22.04979219	     -0.74019443	     26.88892057	     -2.33683511	    -14.22631399	    -21.58553294	     10.16110020	     -2.82163890	    -17.41888019	      3.67282197	     -1.22632903
      4.65000000	      4.78266184	     -2.53481736	      4.75815833	     -0.98899416	      0.90608507	     -0.09509332	    -14.59850292	      5.85932937	     -7.62015578	    -22.41556270	     22.66958233	     -1.57211180	     26.93652500	     -2.79896663	    -15.29959646	    -21.80179197	     10.27952191	     -2.83728115	    -17.53425422	      3.66631832	     -1.25262990
      4.66000000	      4.85409983	     -2.57941240	      4.66259689	     -0.99833620	      0.90700542	     -0.09331099	    -14.33741094	      6.02754712	     -7.71660497	    -21.83814379	     23.21388435	     -2.36089922	     27.00307922	     -3.22846876	    -16.30704100	    -22.41027845	     10.40703842	     -3.16270047	    -17.66069559	      3.56640405	     -1.34400492
      4.67000000	      4.95667452	     -2.56518806	      4.57987001	     -1.00738932	      0.90812925	     -0.09157646	    -14.13200460	      6.15540117	     -7.78558904	    -21.25409735	     23.66515235	     -3.08512617	     27.06818272	     -3.63413611	    -17.14345224	    -23.39886847	     10.55662264	     -3.73655528	    -17.82506644	      3.39776553	     -1.47757917
